<svg version="1.2" xmlns="http://www.w3.org/2000/svg" viewBox="0 0 464 111" width="464" height="111" class="brandLogo">
	<title>trendies_logo-svg</title>
	<style>
		.s0 { fill: none } 
		.s1 { fill: #353232 } 
		.s2 { fill: #312e2e } 
		.s3 { fill: #302d2d } 
		.s4 { fill: #2f2c2c } 
		.s5 { fill: #333030 } 
		.s6 { fill: #322f2f } 
		.s7 { fill: #403d3d } 
	</style>
	<path fill-rule="evenodd" class="s0" d="m-19-179c164.3 0 328.7 0 498 0 0 165 0 330 0 500-164.3 0-328.7 0-498 0 0-165 0-330 0-500z"/>
	<path class="s1" d="m303 1c2.7 2.7 2.2 4.8 2.3 8.4 0 1.4 0 1.4 0 2.7q0 1.5 0 2.9 0 3.1 0 6.2 0 4.9 0 9.8 0.1 13.9 0.2 27.9 0 8.5 0 17 0.1 3.2 0.1 6.5 0 4.5 0 9.1 0 1.3 0 2.7c0 4.8 0.4 7.9 3.4 11.8-18.2 4.3-18.2 4.3-26 4-2.7-2.7-2.2-4.8-2.3-8.4q0-1.4 0-2.7 0-1.5 0-2.9 0-3.1 0-6.2 0-4.9 0-9.8-0.1-13.9-0.2-27.9 0-8.5 0-17-0.1-3.2-0.1-6.5 0-4.5 0-9.1 0-1.3 0-2.7c0-4.8-0.4-7.9-3.4-11.8 4.5-1.7 8.8-2.5 13.6-3.1 1.9-0.3 1.9-0.3 3.8-0.5 5.8-0.6 5.8-0.6 8.6-0.4z"/>
	<path class="s2" d="m378 32c8.9 0.6 15.5 4.9 21.6 11.3 1.7 2.1 3.1 4.3 4.4 6.7q0.2-0.9 0.4-1.8c1.5-5.7 3.4-8.7 8.4-12 5.9-3.2 11.4-4.6 18.2-4.2q-1 1-2 1.9c-2.7 4.2-2.8 7.3-2 12.1 4.7 10.3 17.3 17.7 26.2 24.4 5.4 5 9.6 10.9 10 18.4 0 4.8-1.3 8.1-4.6 11.8q-6.7 6.2-15.6 8.4c-2.3-0.4-2.3-0.4-4-1q1-1.3 2-2.6c2.2-3.7 2.7-5.2 2-9.4-1.9-3.2-1.9-3.2-4-6q-0.5-1.5-1-3-2-1-4-2-2.9-2.3-5.8-4.7-0.7-0.7-1.6-1.3-2.3-2-4.6-4-1.2-1-2.4-2c-4.3-3.7-8-7.6-11.6-12q-0.5 0.5-1 1-2.5 0.1-4.9 0.1-1.5 0-3 0-1.6 0-3.2 0-1.5 0-3.1-0.1-3.9 0-7.8 0 0.1-1.4 0.1-2.9c0.3-10.2-0.5-18.8-7.1-27.1z"/>
	<path class="s3" d="m26 21q1 0 2 0c0 4 0 7.9 0 12q2.5 0 5 0-1 1.1-2 2.2c-3.3 5.1-2.5 11.1-2.5 16.9q0 1.9 0 3.9 0 4 0.1 8 0 5.2 0 10.3 0 4.9 0.1 9.8 0 1.9 0 3.8c0 1.7 0 1.7 0 3.4q0 1.5 0 3.1c0.3 2.7 0.8 4.3 2.3 6.6 1.9 0.9 1.9 0.9 4.1 1.3 1.9 0.3 1.9 0.3 3.9 0.7-3.9 5-9.1 6.2-15 7.4-5.4 0.5-8.8-1.6-13.1-4.7-3.5-3.1-5-6.2-5.9-10.7q-0.1-2.8-0.1-5.6-0.1-1.7-0.1-3.4 0-1.8 0-3.7 0-3.8 0-7.7-0.1-6-0.1-12.1-0.1-5.8-0.1-11.7 0-1.8 0-3.6 0-1.7-0.1-3.5 0-1.4 0-3c-0.6-3.4-2.2-5.1-4.5-7.7 1.6-0.4 1.6-0.4 3.2-0.9 8.4-2.4 16.5-4.8 22.8-11.1z"/>
	<path class="s2" d="m373 32c-0.7 1.4-0.7 1.4-1.5 2.8q-0.9 1.9-1.9 3.8-0.4 0.9-0.9 1.8c-6 11.7-6.6 25-3.1 37.6 2.9 8.3 7.4 15.8 15.4 20 7.1 2.4 12.8 1.1 19.3-2.1 0.9-0.5 0.9-0.5 1.7-0.9-2.5 6.2-8.7 9.6-14.3 12.9-8.1 3.3-16.7 3.2-24.9 0-10.9-5-16.9-12.7-21.4-23.7-1.6-4.3-1.9-8.4-1.8-13q0-1.2 0-2.4c0.3-11.3 4.4-19.7 12.2-27.7 6.3-5.9 12.5-9.4 21.2-9.1z"/>
	<path class="s2" d="m130 32c-0.7 1.4-0.7 1.4-1.5 2.8q-0.9 1.9-1.9 3.8-0.4 0.9-0.9 1.8c-6 11.7-6.6 25-3.1 37.6 2.9 8.3 7.4 15.8 15.4 20 7.1 2.4 12.8 1.1 19.3-2.1 0.9-0.5 0.9-0.5 1.7-0.9-2.5 6.2-8.7 9.6-14.3 12.9-8.1 3.3-16.7 3.2-24.9 0-10.9-5-16.9-12.7-21.4-23.7-1.6-4.3-1.9-8.4-1.8-13q0-1.2 0-2.4c0.3-11.3 4.4-19.7 12.2-27.7 6.3-5.9 12.5-9.4 21.2-9.1z"/>
	<path class="s4" d="m335 33c1.8 1.8 1.1 4.9 1.1 7.4 0 0.9 0 0.9 0.1 2q0 2.1 0 4.3 0 3.4 0 6.9 0.1 9.7 0.1 19.5 0 6 0.1 12 0 2.2 0 4.5 0 3.2 0.1 6.4c0 1.8 0 1.8 0 3.7 0.4 4 0.4 4 4.5 9.3-10.9 0-21.8 0-33 0 1.3-1.6 2.6-3.3 4-5 0.6-3 0.6-3 0.5-6.2q0-1.8 0.1-3.7-0.1-2-0.1-4 0-2 0-4.1 0.1-4.3 0-8.6 0-5.5 0-11 0.1-4.2 0-8.5 0-3 0.1-6-0.1-1.8-0.1-3.7 0-1.6 0-3.3c-0.6-3.6-2.1-5.3-4.5-7.9q0.8-0.1 1.7-0.3 3.8-0.5 7.6-1.1 1.3-0.2 2.7-0.4 1.2-0.2 2.6-0.4c1.1-0.2 1.1-0.2 2.3-0.4 8-1.5 8-1.5 10.1-1.4z"/>
	<path class="s4" d="m189 33c1.8 1.8 1.1 4.9 1.1 7.4 0 0.9 0 0.9 0.1 2q0 2.1 0 4.3 0 3.4 0 6.9 0.1 9.7 0.1 19.5 0 6 0.1 12 0 2.2 0 4.5 0 3.2 0.1 6.4c0 1.8 0 1.8 0 3.7 0.4 4 0.4 4 4.5 9.3-10.9 0-21.8 0-33 0 1.3-1.6 2.6-3.3 4-5 0.6-3 0.6-3 0.5-6.2q0-1.8 0.1-3.7-0.1-2-0.1-4 0-2 0-4.1 0.1-4.3 0-8.6 0-5.5 0-11 0.1-4.2 0-8.5 0-3 0.1-6-0.1-1.8-0.1-3.7 0-1.6 0-3.3c-0.6-3.6-2.1-5.3-4.5-7.9q0.8-0.1 1.7-0.3 3.8-0.5 7.6-1.1 1.3-0.2 2.7-0.4 1.2-0.2 2.6-0.4c1.1-0.2 1.1-0.2 2.3-0.4 8-1.5 8-1.5 10.1-1.4z"/>
	<path class="s4" d="m66 33c1.8 1.8 1.1 4.9 1.1 7.4 0 0.9 0 0.9 0.1 2q0 2.1 0 4.3 0 3.4 0 6.9 0.1 9.7 0.1 19.5 0 6 0.1 12 0 2.2 0 4.5 0 3.2 0.1 6.4c0 1.8 0 1.8 0 3.7 0.4 4 0.4 4 4.5 9.3-10.9 0-21.8 0-33 0 1.3-1.6 2.6-3.3 4-5 0.6-3 0.6-3 0.5-6.2q0-1.8 0.1-3.7-0.1-2-0.1-4 0-2 0-4.1 0.1-4.3 0-8.6 0-5.5 0-11 0.1-4.2 0-8.5 0-3 0.1-6-0.1-1.8-0.1-3.7 0-1.6 0-3.3c-0.6-3.6-2.1-5.3-4.5-7.9q0.8-0.1 1.7-0.3 3.8-0.5 7.6-1.1 1.3-0.2 2.7-0.4 1.2-0.2 2.6-0.4c1.1-0.2 1.1-0.2 2.3-0.4 8-1.5 8-1.5 10.1-1.4z"/>
	<path class="s2" d="m275 32q1 1 2 2-1.3 0.3-2.7 0.7c-6.6 2.6-9.2 7.5-12.2 13.6-2.7 6.5-3.4 12.1-3.4 19q0.1 1.3 0.1 2.6c0.2 11.3 2.2 22 9.8 30.9 2.8 2.6 5.5 3.9 9.4 4.2-5.2 4.2-9.7 5.5-16.3 5.4-7.1-1-13.3-5-18.1-10.2-8.3-11.2-10-23-8.1-36.6 2.3-11.7 7.8-21.2 17.7-28.1 6.9-4.1 13.9-4.5 21.8-3.5z"/>
	<path class="s3" d="m202 32c17.3-0.8 17.3-0.8 23 4 4.4 4.9 6.1 9 6.2 15.6q0 1.7 0 3.5 0 1.8 0 3.7 0.1 3.9 0.1 7.8 0.1 6.2 0.1 12.4 0 6 0.1 11.9 0 1.9 0 3.8c0.1 1.7 0.1 1.7 0.1 3.5 0 1.5 0 1.5 0 3 0.3 3.4 0.3 3.4 3.4 7.8-10.6 0-21.1 0-32 0 1.3-2 2.6-4 4-6 0.6-2.6 0.6-2.6 0.4-5.3q0-1.5 0-3.1 0-1.6 0-3.2 0-3.5 0-7-0.1-5.4-0.1-10.8-0.1-5.3-0.1-10.6 0-1.6 0-3.2c0-7.1 1.4-10.7 6.3-15.9 1.8-1.9 1.8-1.9 1.7-5.3-1-2.6-1-2.6-2.8-3.9-3.4-1-6.8-1.3-10.4-1.7q0-0.5 0-1z"/>
	<path class="s5" d="m420 78c3.2 1.5 5.7 3.3 8 6 1 3 1.2 5.9 1 9-1.7 3.2-3.4 5.4-6 8-0.2 2.8-0.3 4.5 1 7-6.1-0.3-10.5-3.1-15-7-2.9-3.7-4.2-7.5-4.5-12.2 0.6-4.3 1.4-5.8 4.5-8.8 3.7-2.5 6.7-2.6 11-2z"/>
	<path class="s5" d="m92.2 31.2c3.1 2 4.9 3.6 6.8 6.8 0.7 5.2-0.1 8.7-3 13-4.3 2.9-7.8 3.8-13 3-3.1-1.5-5.1-3.2-7-6-0.9-3.1-1.3-6.1-1.6-9.4-0.2-2.8-0.2-2.8-2.4-4.6 7-3.2 12.6-5.6 20.2-2.8z"/>
	<path class="s6" d="m135 32c8.6 0.5 15.5 4.6 21.4 10.8 4.4 5.9 7.6 11.8 7.6 19.2-7.3 0-14.5 0-22 0 0.1-2.2 0.2-4.5 0.3-6.8 0.1-8.7-1.7-16.3-7.3-23.2z"/>
	<path class="s6" d="m328 1c4.3 2.3 7.1 4.5 9 9 0.6 3.9 0.2 5.7-1.7 9.2-3.3 4-5.5 5.6-10.7 6.2-4.3-0.5-6.4-1.6-9.6-4.4-2.3-3.9-2.6-7.5-2-12 4.1-6.3 7.4-8.6 15-8z"/>
	<path class="s7" d="m444 34c4.6 0 9.2 0 14 0 0 7.9 0 15.8 0 24q-0.5 0-1 0-0.3-1.3-0.7-2.6c-2.6-9.3-5.4-14.5-12.3-21.4z"/>
</svg>